<mxfile host="app.diagrams.net" modified="2023-05-22T19:51:45.965Z" agent="Mozilla/5.0 (Windows NT 10.0; Win64; x64; rv:109.0) Gecko/20100101 Firefox/113.0" version="21.3.2" etag="56VzBUDA-L2cTrix2ToJ" type="device">
  <diagram id="2pyYL34U28f_UCvVQH4k" name="Seite-1">
    <mxGraphModel dx="-1998" dy="1650" grid="1" gridSize="10" guides="1" tooltips="1" connect="1" arrows="1" fold="1" page="1" pageScale="1" pageWidth="1169" pageHeight="827" math="0" shadow="0">
      <root>
        <mxCell id="0" />
        <mxCell id="1" parent="0" />
        <mxCell id="lRmxtw9xwGhiraFbsYv7-60" value="Private subnet" style="points=[[0,0],[0.25,0],[0.5,0],[0.75,0],[1,0],[1,0.25],[1,0.5],[1,0.75],[1,1],[0.75,1],[0.5,1],[0.25,1],[0,1],[0,0.75],[0,0.5],[0,0.25]];outlineConnect=0;gradientColor=none;html=1;whiteSpace=wrap;fontSize=12;fontStyle=0;container=1;pointerEvents=0;collapsible=0;recursiveResize=0;shape=mxgraph.aws4.group;grIcon=mxgraph.aws4.group_security_group;grStroke=0;strokeColor=#147EBA;fillColor=#E6F2F8;verticalAlign=top;align=left;spacingLeft=30;fontColor=#147EBA;dashed=0;" parent="1" vertex="1">
          <mxGeometry x="3910" y="-280" width="130" height="130" as="geometry" />
        </mxCell>
        <mxCell id="lRmxtw9xwGhiraFbsYv7-62" value="Availability Zone" style="fillColor=none;strokeColor=#147EBA;dashed=1;verticalAlign=top;fontStyle=0;fontColor=#147EBA;" parent="1" vertex="1">
          <mxGeometry x="3890" y="-490" width="170" height="380" as="geometry" />
        </mxCell>
        <mxCell id="lRmxtw9xwGhiraFbsYv7-64" value="EC2" style="sketch=0;points=[[0,0,0],[0.25,0,0],[0.5,0,0],[0.75,0,0],[1,0,0],[0,1,0],[0.25,1,0],[0.5,1,0],[0.75,1,0],[1,1,0],[0,0.25,0],[0,0.5,0],[0,0.75,0],[1,0.25,0],[1,0.5,0],[1,0.75,0]];outlineConnect=0;fontColor=#232F3E;gradientColor=#F78E04;gradientDirection=north;fillColor=#D05C17;strokeColor=#ffffff;dashed=0;verticalLabelPosition=bottom;verticalAlign=top;align=center;html=1;fontSize=12;fontStyle=0;aspect=fixed;shape=mxgraph.aws4.resourceIcon;resIcon=mxgraph.aws4.ec2;" parent="1" vertex="1">
          <mxGeometry x="3945" y="-242" width="60" height="60" as="geometry" />
        </mxCell>
        <mxCell id="lRmxtw9xwGhiraFbsYv7-72" value="VPC" style="points=[[0,0],[0.25,0],[0.5,0],[0.75,0],[1,0],[1,0.25],[1,0.5],[1,0.75],[1,1],[0.75,1],[0.5,1],[0.25,1],[0,1],[0,0.75],[0,0.5],[0,0.25]];outlineConnect=0;gradientColor=none;html=1;whiteSpace=wrap;fontSize=12;fontStyle=0;container=1;pointerEvents=0;collapsible=0;recursiveResize=0;shape=mxgraph.aws4.group;grIcon=mxgraph.aws4.group_vpc;strokeColor=#248814;fillColor=none;verticalAlign=top;align=left;spacingLeft=30;fontColor=#AAB7B8;dashed=0;" parent="1" vertex="1">
          <mxGeometry x="3870" y="-460" width="540" height="330" as="geometry" />
        </mxCell>
        <mxCell id="lRmxtw9xwGhiraFbsYv7-73" value="IGW" style="sketch=0;outlineConnect=0;gradientColor=none;fillColor=#4D27AA;strokeColor=none;dashed=0;verticalLabelPosition=bottom;verticalAlign=top;align=center;html=1;aspect=fixed;pointerEvents=1;shape=mxgraph.aws4.internet_gateway;shadow=0;" parent="lRmxtw9xwGhiraFbsYv7-72" vertex="1">
          <mxGeometry x="240" y="-30" width="60" height="60" as="geometry" />
        </mxCell>
        <mxCell id="lRmxtw9xwGhiraFbsYv7-75" value="AWS Cloud" style="points=[[0,0],[0.25,0],[0.5,0],[0.75,0],[1,0],[1,0.25],[1,0.5],[1,0.75],[1,1],[0.75,1],[0.5,1],[0.25,1],[0,1],[0,0.75],[0,0.5],[0,0.25]];outlineConnect=0;gradientColor=none;html=1;whiteSpace=wrap;fontSize=12;fontStyle=0;container=1;pointerEvents=0;collapsible=0;recursiveResize=0;shape=mxgraph.aws4.group;grIcon=mxgraph.aws4.group_aws_cloud;strokeColor=#232F3E;fillColor=none;verticalAlign=top;align=left;spacingLeft=30;fontColor=#232F3E;dashed=0;shadow=0;sketch=0;" parent="1" vertex="1">
          <mxGeometry x="3850" y="-620" width="580" height="530" as="geometry" />
        </mxCell>
        <mxCell id="lRmxtw9xwGhiraFbsYv7-63" value="Availability Zone" style="fillColor=none;strokeColor=#147EBA;dashed=1;verticalAlign=top;fontStyle=0;fontColor=#147EBA;" parent="lRmxtw9xwGhiraFbsYv7-75" vertex="1">
          <mxGeometry x="370" y="130" width="170" height="380" as="geometry" />
        </mxCell>
        <mxCell id="lRmxtw9xwGhiraFbsYv7-65" value="ALB" style="sketch=0;outlineConnect=0;fontColor=#232F3E;gradientColor=none;fillColor=#4D27AA;strokeColor=none;dashed=0;verticalLabelPosition=bottom;verticalAlign=top;align=center;html=1;fontSize=12;fontStyle=0;aspect=fixed;pointerEvents=1;shape=mxgraph.aws4.application_load_balancer;" parent="lRmxtw9xwGhiraFbsYv7-75" vertex="1">
          <mxGeometry x="260" y="227" width="60" height="60" as="geometry" />
        </mxCell>
        <mxCell id="Nim2ooXp-eyVJxYVRgSN-13" style="edgeStyle=orthogonalEdgeStyle;rounded=0;orthogonalLoop=1;jettySize=auto;html=1;" parent="lRmxtw9xwGhiraFbsYv7-75" source="Nim2ooXp-eyVJxYVRgSN-1" target="lRmxtw9xwGhiraFbsYv7-65" edge="1">
          <mxGeometry relative="1" as="geometry">
            <Array as="points">
              <mxPoint x="350" y="70" />
              <mxPoint x="350" y="257" />
            </Array>
          </mxGeometry>
        </mxCell>
        <mxCell id="Nim2ooXp-eyVJxYVRgSN-1" value="ACM" style="sketch=0;points=[[0,0,0],[0.25,0,0],[0.5,0,0],[0.75,0,0],[1,0,0],[0,1,0],[0.25,1,0],[0.5,1,0],[0.75,1,0],[1,1,0],[0,0.25,0],[0,0.5,0],[0,0.75,0],[1,0.25,0],[1,0.5,0],[1,0.75,0]];outlineConnect=0;fontColor=#232F3E;gradientColor=#F54749;gradientDirection=north;fillColor=#C7131F;strokeColor=#ffffff;dashed=0;verticalLabelPosition=bottom;verticalAlign=top;align=center;html=1;fontSize=12;fontStyle=0;aspect=fixed;shape=mxgraph.aws4.resourceIcon;resIcon=mxgraph.aws4.certificate_manager_3;labelPosition=center;" parent="lRmxtw9xwGhiraFbsYv7-75" vertex="1">
          <mxGeometry x="425" y="40" width="60" height="60" as="geometry" />
        </mxCell>
        <mxCell id="Nim2ooXp-eyVJxYVRgSN-10" value="S3" style="sketch=0;points=[[0,0,0],[0.25,0,0],[0.5,0,0],[0.75,0,0],[1,0,0],[0,1,0],[0.25,1,0],[0.5,1,0],[0.75,1,0],[1,1,0],[0,0.25,0],[0,0.5,0],[0,0.75,0],[1,0.25,0],[1,0.5,0],[1,0.75,0]];outlineConnect=0;fontColor=#232F3E;gradientColor=#60A337;gradientDirection=north;fillColor=#277116;strokeColor=#ffffff;dashed=0;verticalLabelPosition=bottom;verticalAlign=top;align=center;html=1;fontSize=12;fontStyle=0;aspect=fixed;shape=mxgraph.aws4.resourceIcon;resIcon=mxgraph.aws4.s3;labelPosition=center;" parent="lRmxtw9xwGhiraFbsYv7-75" vertex="1">
          <mxGeometry x="95" y="40" width="60" height="60" as="geometry" />
        </mxCell>
        <mxCell id="Nim2ooXp-eyVJxYVRgSN-12" style="edgeStyle=orthogonalEdgeStyle;rounded=0;orthogonalLoop=1;jettySize=auto;html=1;entryX=1;entryY=0.5;entryDx=0;entryDy=0;entryPerimeter=0;" parent="lRmxtw9xwGhiraFbsYv7-75" source="lRmxtw9xwGhiraFbsYv7-65" target="Nim2ooXp-eyVJxYVRgSN-10" edge="1">
          <mxGeometry relative="1" as="geometry">
            <Array as="points">
              <mxPoint x="230" y="257" />
              <mxPoint x="230" y="70" />
            </Array>
          </mxGeometry>
        </mxCell>
        <mxCell id="lRmxtw9xwGhiraFbsYv7-59" value="Public subnet" style="points=[[0,0],[0.25,0],[0.5,0],[0.75,0],[1,0],[1,0.25],[1,0.5],[1,0.75],[1,1],[0.75,1],[0.5,1],[0.25,1],[0,1],[0,0.75],[0,0.5],[0,0.25]];outlineConnect=0;gradientColor=none;html=1;whiteSpace=wrap;fontSize=12;fontStyle=0;container=1;pointerEvents=0;collapsible=0;recursiveResize=0;shape=mxgraph.aws4.group;grIcon=mxgraph.aws4.group_security_group;grStroke=0;strokeColor=#248814;fillColor=#E9F3E6;verticalAlign=top;align=left;spacingLeft=30;fontColor=#248814;dashed=0;" parent="lRmxtw9xwGhiraFbsYv7-75" vertex="1">
          <mxGeometry x="390" y="192" width="130" height="130" as="geometry" />
        </mxCell>
        <mxCell id="lRmxtw9xwGhiraFbsYv7-61" value="Private subnet" style="points=[[0,0],[0.25,0],[0.5,0],[0.75,0],[1,0],[1,0.25],[1,0.5],[1,0.75],[1,1],[0.75,1],[0.5,1],[0.25,1],[0,1],[0,0.75],[0,0.5],[0,0.25]];outlineConnect=0;gradientColor=none;html=1;whiteSpace=wrap;fontSize=12;fontStyle=0;container=1;pointerEvents=0;collapsible=0;recursiveResize=0;shape=mxgraph.aws4.group;grIcon=mxgraph.aws4.group_security_group;grStroke=0;strokeColor=#147EBA;fillColor=#E6F2F8;verticalAlign=top;align=left;spacingLeft=30;fontColor=#147EBA;dashed=0;" parent="lRmxtw9xwGhiraFbsYv7-75" vertex="1">
          <mxGeometry x="390" y="340" width="130" height="130" as="geometry" />
        </mxCell>
        <mxCell id="lRmxtw9xwGhiraFbsYv7-58" value="Public subnet" style="points=[[0,0],[0.25,0],[0.5,0],[0.75,0],[1,0],[1,0.25],[1,0.5],[1,0.75],[1,1],[0.75,1],[0.5,1],[0.25,1],[0,1],[0,0.75],[0,0.5],[0,0.25]];outlineConnect=0;gradientColor=none;html=1;whiteSpace=wrap;fontSize=12;fontStyle=0;container=1;pointerEvents=0;collapsible=0;recursiveResize=0;shape=mxgraph.aws4.group;grIcon=mxgraph.aws4.group_security_group;grStroke=0;strokeColor=#248814;fillColor=#E9F3E6;verticalAlign=top;align=left;spacingLeft=30;fontColor=#248814;dashed=0;" parent="lRmxtw9xwGhiraFbsYv7-75" vertex="1">
          <mxGeometry x="60" y="192" width="130" height="130" as="geometry" />
        </mxCell>
        <mxCell id="lRmxtw9xwGhiraFbsYv7-66" value="Target Group" style="fillColor=none;strokeColor=#5A6C86;dashed=1;verticalAlign=top;fontStyle=0;fontColor=#5A6C86;" parent="1" vertex="1">
          <mxGeometry x="3930" y="-250" width="420" height="90" as="geometry" />
        </mxCell>
        <mxCell id="lRmxtw9xwGhiraFbsYv7-68" style="edgeStyle=orthogonalEdgeStyle;rounded=0;orthogonalLoop=1;jettySize=auto;html=1;entryX=0.5;entryY=0;entryDx=0;entryDy=0;" parent="1" source="lRmxtw9xwGhiraFbsYv7-65" target="lRmxtw9xwGhiraFbsYv7-66" edge="1">
          <mxGeometry relative="1" as="geometry">
            <Array as="points" />
          </mxGeometry>
        </mxCell>
        <mxCell id="lRmxtw9xwGhiraFbsYv7-78" value="" style="edgeStyle=orthogonalEdgeStyle;rounded=0;orthogonalLoop=1;jettySize=auto;html=1;" parent="1" source="Nim2ooXp-eyVJxYVRgSN-7" target="lRmxtw9xwGhiraFbsYv7-73" edge="1">
          <mxGeometry relative="1" as="geometry">
            <Array as="points">
              <mxPoint x="4130" y="-710" />
            </Array>
            <mxPoint x="3931.7" y="-713.712" as="sourcePoint" />
          </mxGeometry>
        </mxCell>
        <mxCell id="lRmxtw9xwGhiraFbsYv7-83" style="edgeStyle=orthogonalEdgeStyle;rounded=0;orthogonalLoop=1;jettySize=auto;html=1;entryX=0;entryY=0.5;entryDx=0;entryDy=0;" parent="1" source="lRmxtw9xwGhiraFbsYv7-73" target="Nim2ooXp-eyVJxYVRgSN-6" edge="1">
          <mxGeometry relative="1" as="geometry">
            <Array as="points">
              <mxPoint x="4150" y="-710" />
            </Array>
            <mxPoint x="4013" y="-670.86" as="targetPoint" />
          </mxGeometry>
        </mxCell>
        <mxCell id="lRmxtw9xwGhiraFbsYv7-74" value="" style="edgeStyle=orthogonalEdgeStyle;rounded=0;orthogonalLoop=1;jettySize=auto;html=1;labelBackgroundColor=none;" parent="1" source="lRmxtw9xwGhiraFbsYv7-73" target="lRmxtw9xwGhiraFbsYv7-65" edge="1">
          <mxGeometry relative="1" as="geometry" />
        </mxCell>
        <mxCell id="lRmxtw9xwGhiraFbsYv7-67" value="EC2" style="sketch=0;points=[[0,0,0],[0.25,0,0],[0.5,0,0],[0.75,0,0],[1,0,0],[0,1,0],[0.25,1,0],[0.5,1,0],[0.75,1,0],[1,1,0],[0,0.25,0],[0,0.5,0],[0,0.75,0],[1,0.25,0],[1,0.5,0],[1,0.75,0]];outlineConnect=0;fontColor=#232F3E;gradientColor=#F78E04;gradientDirection=north;fillColor=#D05C17;strokeColor=#ffffff;dashed=0;verticalLabelPosition=bottom;verticalAlign=top;align=center;html=1;fontSize=12;fontStyle=0;aspect=fixed;shape=mxgraph.aws4.resourceIcon;resIcon=mxgraph.aws4.ec2;" parent="1" vertex="1">
          <mxGeometry x="4269" y="-242" width="60" height="60" as="geometry" />
        </mxCell>
        <mxCell id="Nim2ooXp-eyVJxYVRgSN-6" value="&lt;font&gt;Identity Provider&lt;/font&gt;" style="image;aspect=fixed;perimeter=ellipsePerimeter;html=1;align=center;shadow=0;dashed=0;fontColor=#000000;labelBackgroundColor=none;fontSize=12;spacingTop=3;image=img/lib/ibm/security/identity_provider.svg;spacing=-6;" parent="1" vertex="1">
          <mxGeometry x="4180" y="-740" width="60" height="60" as="geometry" />
        </mxCell>
        <mxCell id="Nim2ooXp-eyVJxYVRgSN-7" value="End-User" style="sketch=0;pointerEvents=1;shadow=0;dashed=0;html=1;strokeColor=none;labelPosition=center;verticalLabelPosition=bottom;verticalAlign=top;outlineConnect=0;align=center;shape=mxgraph.office.users.user;fillColor=#dd0000;spacing=2;" parent="1" vertex="1">
          <mxGeometry x="4050" y="-740" width="46" height="50" as="geometry" />
        </mxCell>
      </root>
    </mxGraphModel>
  </diagram>
</mxfile>
